<svg width="235" height="235" viewBox="0 0 235 235" fill="none" xmlns="http://www.w3.org/2000/svg">
<path d="M163.018 62.471C159.727 65.1139 158.2 68.4104 157.754 72.75C157.13 78.831 153.936 83.9614 149.638 88.3197C146.848 91.1496 144.014 93.9372 140.988 96.6731C140.487 96.0632 140.224 95.5076 139.904 94.9875C137.818 91.6003 136.352 91.4335 133.525 94.2589C127.735 100.044 121.974 105.858 116.144 111.602C114.826 112.9 114.356 114.208 115.048 115.996C113.013 118.061 111.105 120.028 109.021 122.003C107.624 122.086 106.402 122.159 105.18 122.232C103.039 118.809 103.294 116.122 106.211 113.164C111.418 107.884 116.693 102.669 121.911 97.3981C122.484 96.8185 123.122 96.1033 123.267 95.3606C123.384 94.7616 122.982 93.7401 122.483 93.4257C121.896 93.0556 120.865 93.0061 120.192 93.2579C119.461 93.5312 118.891 94.2831 118.299 94.8744C107.696 105.465 97.145 116.109 86.4482 126.604C85.0794 127.947 83.0499 128.981 81.1682 129.349C78.5546 129.859 76.4451 128.39 75.1603 126.035C73.8696 123.67 74.058 121.314 75.6122 119.126C76.1827 118.323 76.9095 117.623 77.6103 116.922C88.0932 106.427 98.5848 95.9413 109.069 85.448C109.607 84.9092 110.351 84.396 110.543 83.738C110.765 82.974 110.795 81.7088 110.339 81.3056C109.765 80.7978 108.546 80.6777 107.732 80.8849C107.014 81.0677 106.443 81.9047 105.85 82.4966C92.1665 96.1702 78.5198 109.881 64.7605 123.478C63.4376 124.785 61.5168 125.834 59.7064 126.221C56.9987 126.8 54.7576 125.406 53.4512 122.955C52.1568 120.526 52.3509 118.072 54.0303 115.842C54.6242 115.054 55.3536 114.362 56.0551 113.66C69.4037 100.3 82.7574 86.9452 96.1101 73.5894C96.4344 73.265 96.7571 72.9388 97.0832 72.6161C98.2201 71.4908 99.3963 70.2484 97.868 68.7307C96.3381 67.2115 95.1102 68.4154 93.9834 69.5424C82.3063 81.2216 70.6287 92.9004 58.9483 104.576C55.1298 108.393 51.3352 108.85 48.3474 105.865C45.3597 102.881 45.8115 99.0765 49.6213 95.265C61.297 83.5843 72.981 71.912 84.6504 60.225C86.9386 57.9335 86.6886 56.5872 83.7766 55.4335C87.6947 51.6395 91.7138 48.0216 95.6867 44.3536C96.9416 43.1951 97.9202 43.3171 99.2539 44.3635C105.569 49.3185 112.713 50.8725 120.57 49.2607C125.45 48.2596 129.304 45.462 133.087 42.4222C136.769 39.4639 139.576 39.7563 142.957 43.1286C148.797 48.9549 154.613 54.8053 160.475 60.6098C161.213 61.3408 162.165 61.8559 163.018 62.471Z" fill="white"/>
<path d="M162.662 62.7851C161.673 62.2388 160.76 61.954 160.022 61.2231C154.16 55.4186 148.344 49.5682 142.504 43.7419C139.123 40.3695 136.316 40.0771 132.634 43.0354C128.85 46.0752 124.997 48.8728 120.117 49.8739C112.26 51.4858 105.116 49.9317 98.8007 44.9768C97.4669 43.9303 96.4884 43.8083 95.2335 44.9669C91.2606 48.6349 87.2414 52.2528 83.1568 56.0182C77.3015 61.8316 71.6087 67.6009 65.7072 73.1481C64.0445 74.711 61.893 75.9494 59.7476 76.7575C56.5152 77.975 53.4179 76.9655 50.676 75.0004C48.1276 73.174 48.0515 72.0969 50.2545 69.8902C58.8455 61.2851 67.3477 52.5876 76.0937 44.1427C80.0383 40.3341 84.306 36.8035 88.7306 33.5609C96.7988 27.648 105.717 23.2476 115.411 20.7533C119.652 19.662 121.983 16.5722 125.026 13.7643C128.498 16.8087 131.743 19.9502 135.049 23.2316C146.011 34.2279 156.918 45.0802 167.801 55.957C168.181 56.3367 168.278 56.7296 168.529 57.2393C166.618 59.0649 164.708 60.8906 162.662 62.7851Z" fill="white"/>
<path d="M105.126 122.373C106.402 122.159 107.624 122.086 109.062 122.161C110.107 123.74 111.357 124.797 109.807 126.862C105.644 132.405 101.488 138.012 97.9893 143.98C93.245 152.074 89.9323 160.591 92.967 170.382C94.0518 173.883 92.9522 177.364 90.0502 179.981C88.6906 181.207 87.3088 182.41 85.9901 183.679C82.6878 186.857 79.4159 190.066 76.0438 193.251C75.9558 193.24 75.7814 193.206 75.7179 193.065C73.0918 190.277 70.5292 187.629 67.9666 184.981C73.509 179.5 79.0737 174.041 84.5526 168.497C85.0027 168.042 85.1549 166.928 84.9624 166.259C83.3572 160.678 84.3099 155.475 86.6047 150.24C91.1409 139.892 97.5536 130.848 105.126 122.373Z" fill="#333333"/>
<path d="M67.7966 184.941C70.5292 187.629 73.0918 190.277 75.5147 193.075C72.9003 192.937 71.0323 193.883 69.2919 195.676C63.8105 201.322 58.1804 206.824 52.6432 212.416C51.9669 213.099 51.5056 213.995 50.9447 214.792C48.2313 212.757 45.5178 210.721 42.6611 208.461C42.4118 208.126 42.3057 208.015 42.1996 207.904C42.1996 207.904 42.256 207.943 42.2401 207.974C42.1431 205.809 43.026 204.082 44.5835 202.547C49.9983 197.208 55.3739 191.83 60.717 186.42C62.7317 184.38 64.8778 183.386 67.7966 184.941Z" fill="white"/>
<path d="M135.629 22.8286C132.383 19.6871 128.951 16.1954 125.55 12.9913C124.432 11.0121 124.958 9.54435 126.496 8.0923C128.636 6.07085 130.575 3.83592 132.634 1.54004C137.594 2.2762 142.52 3.16519 147.446 4.05242C147.962 4.1453 148.868 4.50459 149.393 4.86788C146.76 8.66967 142.794 11.7174 139.489 15.1072C137.456 17.193 135.261 19.5782 135.629 22.8286Z" fill="#333333"/>
<path d="M167.003 180.908C167.514 183.31 166.68 185.181 164.939 186.866C161.146 190.534 157.5 194.353 153.708 198.021C148.045 203.498 141.229 206.525 133.367 206.919C131.159 207.03 130.046 208.43 128.933 209.773C126.666 212.509 123.989 213.141 120.449 211.908C118.16 210.657 116.039 209.712 114.197 208.383C107.407 203.482 101.65 197.639 98.6558 189.612C96.9681 185.088 99.7986 180.661 104.515 180.016C110.915 179.142 115.385 175.586 117.73 169.696C120.084 163.78 119.32 157.957 115.032 153.196C112.72 150.629 109.508 148.871 106.317 146.457C107.515 140.368 111.244 135.079 116.594 130.802C118.334 132.284 120.074 133.766 122.026 135.456C124.171 137.576 126.103 139.488 128.035 141.401C130.389 143.796 132.744 146.191 135.322 148.785C137.488 150.881 139.431 152.779 141.375 154.677C143.573 156.925 145.77 159.173 148.183 161.627C150.331 163.743 152.264 165.651 154.197 167.56C156.413 169.791 158.629 172.022 161.041 174.474C163.158 176.766 165.081 178.837 167.003 180.908Z" fill="#333333"/>
<path d="M135.502 22.6184C135.075 19.228 137.007 17.0659 139.041 14.9801C142.345 11.5904 145.686 8.23622 149.099 4.7428C158.239 6.95739 166.901 10.3341 174.902 15.1534C180.936 18.7882 186.731 22.8326 192.525 26.8493C194.562 28.2615 196.281 30.1332 198.21 31.9297C197.603 33.2985 197.168 34.764 196.223 35.7297C189.601 42.4941 182.873 49.1556 176.179 55.8493C173.086 58.9415 173.086 58.9408 169.174 56.888C168.771 56.3466 168.634 55.7235 168.254 55.3437C157.371 44.467 146.465 33.6147 135.502 22.6184ZM171.179 39.2981C170.003 41.1295 170.078 42.9332 171.47 44.5815C172.63 45.9558 174.13 46.6232 175.962 46.0873C177.922 45.514 179.115 44.1581 179.328 42.1678C179.544 40.1385 178.522 38.6115 176.719 37.7324C174.639 36.7186 172.871 37.3781 171.179 39.2981Z" fill="#333333"/>
<path d="M116.559 130.646C111.244 135.079 107.515 140.368 106.317 146.457C109.508 148.871 112.72 150.629 115.032 153.196C119.32 157.957 120.084 163.78 117.73 169.696C115.385 175.586 110.915 179.142 104.515 180.016C99.7986 180.661 96.9681 185.088 98.6558 189.612C101.65 197.639 107.407 203.482 114.197 208.383C116.039 209.712 118.16 210.657 120.266 211.896C116.846 215.455 113.314 218.898 109.775 222.334C109.067 223.021 108.332 223.679 107.345 224.348C102.873 220.149 98.6551 215.965 94.4647 211.753C88.3432 205.6 82.2418 199.427 76.1319 193.262C79.4159 190.066 82.6878 186.857 85.9901 183.679C87.3088 182.41 88.6906 181.207 90.0502 179.981C92.9522 177.364 94.0518 173.883 92.967 170.382C89.9323 160.591 93.2451 152.074 97.9893 143.98C101.488 138.012 105.644 132.405 109.807 126.862C111.357 124.797 110.107 123.74 109.238 122.152C111.105 120.028 113.013 118.061 115.197 116.066C117.586 118.194 119.699 120.351 121.812 122.508C119.993 124.215 118.056 125.82 116.432 127.695C115.984 128.212 116.467 129.536 116.559 130.646ZM99.0322 170.286C102.156 171.721 105.04 171.272 107.496 168.929C109.673 166.852 110.272 164.227 109.362 161.35C108.374 158.226 105.435 156.132 102.257 156.174C99.0517 156.217 96.1567 158.398 95.2241 161.472C94.2158 164.796 95.4425 167.836 99.0322 170.286Z" fill="#DCDCDC"/>
<path d="M76.0438 193.251C82.2418 199.427 88.3432 205.6 94.4647 211.753C98.6551 215.965 102.873 220.149 107.208 224.428C109.451 227.987 109.274 229.316 106.362 232.292C105.624 233.046 104.958 233.871 104.237 234.815C95.5087 233.73 86.9095 232.025 78.6141 229.02C68.8838 225.495 59.6089 221.079 51.0782 214.874C51.5056 213.995 51.9669 213.099 52.6432 212.416C58.1804 206.824 63.8105 201.322 69.2919 195.676C71.0323 193.883 72.9003 192.937 75.5782 193.216C75.7814 193.206 75.9558 193.239 76.0438 193.251Z" fill="white"/>
<path d="M163.904 119.143C163.102 117.535 163.573 116.262 164.802 115.045C170.444 109.454 176.015 103.79 181.676 98.2179C185.077 94.8704 189.114 94.7253 192.046 97.6856C194.985 100.652 194.788 104.683 191.464 108.033C185.923 113.618 180.335 119.157 174.789 124.737C173.63 125.903 172.467 126.775 170.54 125.573C168.166 123.301 166.035 121.222 163.904 119.143Z" fill="#333333"/>
<path d="M121.966 122.537C119.699 120.351 117.586 118.194 115.325 115.968C114.356 114.208 114.826 112.9 116.144 111.602C121.974 105.858 127.735 100.044 133.525 94.2589C136.352 91.4335 137.818 91.6003 139.904 94.9875C140.224 95.5076 140.487 96.0632 140.852 96.7446C142.28 102.075 141.099 106.457 137.11 110.191C133.209 113.841 129.513 117.71 125.751 121.507C124.714 122.553 123.651 123.307 121.966 122.537Z" fill="#333333"/>
<path d="M167.121 167.824C166.695 166.09 167.274 164.779 168.558 163.535C172.455 159.762 176.237 155.87 180.098 152.059C183.256 148.941 187.483 148.723 190.317 151.47C193.231 154.295 193.092 158.625 189.909 161.855C185.994 165.827 182.093 169.82 178.027 173.634C177.187 174.423 175.649 174.467 174.198 174.701C171.683 172.307 169.402 170.065 167.121 167.824Z" fill="#333333"/>
<path d="M151.128 106.271C150.075 104.651 150.444 103.272 151.761 101.972C155.294 98.4813 158.731 94.8916 162.329 91.4696C165.601 88.358 169.783 88.3473 172.588 91.2372C175.291 94.0218 175.029 98.2927 171.906 101.46C168.472 104.942 164.986 108.371 161.548 111.849C160.511 112.898 159.448 113.652 157.682 112.753C155.342 110.479 153.235 108.375 151.128 106.271Z" fill="#333333"/>
<path d="M163.83 131.766C165.238 133.372 164.836 134.73 163.407 136.129C159.537 139.918 155.727 143.768 151.909 147.61C150.879 148.648 149.8 149.395 148.037 148.55C145.701 146.281 143.597 144.176 141.493 142.072C140.453 140.475 140.723 139.102 142.068 137.777C145.931 133.971 149.748 130.119 153.583 126.285C154.76 125.108 156.008 124.359 157.814 125.826C159.97 127.941 161.9 129.854 163.83 131.766Z" fill="#333333"/>
<path d="M128.102 128.783C127.403 127.288 127.684 126.029 128.87 124.859C132.774 121.004 136.636 117.106 140.519 113.229C141.789 111.96 143.147 111.374 144.95 112.976C147.125 115.082 149.065 116.984 151.005 118.886C152.036 120.4 151.744 121.68 150.462 122.941C146.499 126.841 142.579 130.784 138.661 134.73C137.57 135.83 136.407 136.249 134.74 135.213C132.365 132.941 130.234 130.862 128.102 128.783Z" fill="#333333"/>
<path d="M177.169 145.043C178.117 146.697 177.675 148.019 176.359 149.308C172.503 153.083 168.701 156.914 164.903 160.748C163.69 161.972 162.454 162.558 160.688 161.097C158.413 158.92 156.378 156.942 154.343 154.964C153.418 153.388 153.869 152.112 155.101 150.895C158.943 147.101 162.75 143.27 166.558 139.441C167.663 138.33 168.852 137.673 170.65 138.689C172.977 140.943 175.073 142.993 177.169 145.043Z" fill="#333333"/>
<path d="M176.76 132.02C176.347 130.286 176.924 128.96 178.222 127.742C180.556 125.551 182.744 123.204 185.042 120.972C188.299 117.81 192.346 117.636 195.248 120.474C198.204 123.365 198.045 127.52 194.81 130.822C192.408 133.274 190.055 135.789 187.483 138.05C186.67 138.765 185.218 138.753 183.827 138.911C181.317 136.505 179.039 134.263 176.76 132.02Z" fill="#333333"/>
<path d="M154.216 155.073C156.378 156.942 158.413 158.92 160.545 161.018C158.596 163.252 156.55 165.366 154.351 167.52C152.264 165.651 150.331 163.743 148.313 161.706C150.182 159.446 152.135 157.314 154.216 155.073Z" fill="#DCDCDC"/>
<path d="M167.052 167.975C169.402 170.065 171.683 172.307 174.043 174.686C171.854 176.824 169.587 178.825 167.161 180.867C165.081 178.837 163.158 176.766 161.168 174.558C163.061 172.322 165.022 170.224 167.052 167.975Z" fill="#DCDCDC"/>
<path d="M176.693 132.173C179.039 134.263 181.317 136.505 183.673 138.886C181.641 140.975 179.532 142.925 177.296 144.959C175.073 142.993 172.977 140.943 170.809 138.759C172.7 136.524 174.663 134.425 176.693 132.173Z" fill="#DCDCDC"/>
<path d="M163.985 131.726C161.9 129.854 159.97 127.941 157.954 125.901C159.829 123.661 161.788 121.548 163.826 119.289C166.035 121.222 168.166 123.301 170.385 125.51C168.362 127.655 166.251 129.67 163.985 131.726Z" fill="#DCDCDC"/>
<path d="M141.358 142.175C143.597 144.176 145.701 146.281 147.883 148.524C145.85 150.612 143.739 152.562 141.502 154.594C139.431 152.779 137.488 150.881 135.454 148.859C137.317 146.582 139.27 144.43 141.358 142.175Z" fill="#DCDCDC"/>
<path d="M128.025 128.93C130.234 130.862 132.365 132.941 134.586 135.148C132.565 137.293 130.455 139.308 128.19 141.362C126.103 139.488 124.171 137.576 122.156 135.535C124.031 133.296 125.99 131.186 128.025 128.93Z" fill="#DCDCDC"/>
<path d="M151.134 118.804C149.065 116.984 147.125 115.082 145.094 113.056C146.956 110.781 148.908 108.631 150.994 106.375C153.235 108.375 155.342 110.479 157.526 112.723C155.489 114.816 153.376 116.769 151.134 118.804Z" fill="#DCDCDC"/>
<path d="M42.2382 208.022C42.3057 208.015 42.4118 208.126 42.6014 208.316C42.5489 208.31 42.4128 208.225 42.2382 208.022Z" fill="white"/>
<path d="M171.282 39.1588C172.871 37.3781 174.639 36.7186 176.719 37.7324C178.522 38.6115 179.544 40.1384 179.328 42.1677C179.115 44.1581 177.922 45.5139 175.962 46.0872C174.13 46.6231 172.63 45.9558 171.47 44.5814C170.078 42.9332 170.003 41.1294 171.282 39.1588Z" fill="#333333"/>
<path d="M98.8755 170.209C95.4425 167.836 94.2158 164.796 95.2241 161.472C96.1567 158.398 99.0517 156.217 102.257 156.174C105.435 156.132 108.374 158.226 109.362 161.35C110.272 164.227 109.673 166.852 107.496 168.929C105.04 171.272 102.156 171.721 98.8755 170.209Z" fill="#333333"/>
</svg>
