<svg width="332" height="266" viewBox="0 0 332 266" fill="none" xmlns="http://www.w3.org/2000/svg">
<path d="M211.018 76.471C207.727 79.1138 206.2 82.4104 205.754 86.75C205.13 92.831 201.936 97.9614 197.638 102.32C194.848 105.15 192.014 107.937 188.988 110.673C188.487 110.063 188.224 109.508 187.904 108.988C185.818 105.6 184.352 105.433 181.525 108.259C175.735 114.044 169.974 119.858 164.144 125.602C162.826 126.9 162.356 128.208 163.048 129.996C161.013 132.061 159.105 134.028 157.021 136.003C155.624 136.086 154.402 136.159 153.18 136.232C151.039 132.809 151.294 130.122 154.211 127.164C159.418 121.884 164.693 116.669 169.911 111.398C170.484 110.818 171.122 110.103 171.267 109.361C171.384 108.762 170.982 107.74 170.483 107.426C169.896 107.056 168.865 107.006 168.192 107.258C167.461 107.531 166.891 108.283 166.299 108.874C155.696 119.465 145.145 130.109 134.448 140.604C133.079 141.947 131.05 142.981 129.168 143.349C126.555 143.859 124.445 142.39 123.16 140.035C121.87 137.669 122.058 135.314 123.612 133.126C124.183 132.323 124.909 131.623 125.61 130.922C136.093 120.427 146.585 109.941 157.069 99.448C157.607 98.9092 158.351 98.3959 158.543 97.738C158.765 96.9739 158.795 95.7087 158.339 95.3055C157.765 94.7978 156.546 94.6776 155.732 94.8849C155.014 95.0677 154.443 95.9047 153.85 96.4966C140.167 110.17 126.52 123.881 112.761 137.478C111.438 138.785 109.517 139.834 107.706 140.221C104.999 140.8 102.758 139.406 101.451 136.955C100.157 134.526 100.351 132.072 102.03 129.842C102.624 129.054 103.354 128.362 104.055 127.66C117.404 114.3 130.757 100.945 144.11 87.5894C144.434 87.265 144.757 86.9388 145.083 86.6161C146.22 85.4908 147.396 84.2484 145.868 82.7307C144.338 81.2115 143.11 82.4154 141.983 83.5424C130.306 95.2216 118.629 106.9 106.948 118.576C103.13 122.393 99.3352 122.85 96.3474 119.865C93.3597 116.881 93.8115 113.077 97.6213 109.265C109.297 97.5843 120.981 85.912 132.65 74.225C134.939 71.9335 134.689 70.5872 131.777 69.4335C135.695 65.6395 139.714 62.0216 143.687 58.3536C144.942 57.1951 145.92 57.317 147.254 58.3635C153.569 63.3184 160.713 64.8725 168.57 63.2607C173.45 62.2596 177.304 59.4619 181.087 56.4222C184.769 53.4639 187.576 53.7563 190.957 57.1286C196.797 62.9549 202.613 68.8053 208.475 74.6098C209.213 75.3408 210.165 75.8559 211.018 76.471Z" fill="#333333"/>
<path d="M210.662 76.7851C209.673 76.2388 208.76 75.954 208.022 75.2231C202.16 69.4186 196.344 63.5682 190.504 57.7419C187.123 54.3695 184.316 54.0771 180.634 57.0354C176.85 60.0752 172.997 62.8728 168.117 63.8739C160.26 65.4858 153.116 63.9317 146.801 58.9768C145.467 57.9303 144.488 57.8083 143.233 58.9669C139.261 62.6349 135.241 66.2528 131.157 70.0182C125.302 75.8316 119.609 81.6009 113.707 87.1481C112.044 88.711 109.893 89.9494 107.748 90.7575C104.515 91.975 101.418 90.9655 98.676 89.0004C96.1276 87.174 96.0515 86.0969 98.2545 83.8902C106.846 75.2851 115.348 66.5876 124.094 58.1427C128.038 54.3341 132.306 50.8035 136.731 47.5609C144.799 41.648 153.717 37.2476 163.411 34.7533C167.652 33.662 169.983 30.5722 173.026 27.7643C176.498 30.8087 179.743 33.9502 183.049 37.2316C194.011 48.2279 204.918 59.0802 215.801 69.957C216.181 70.3367 216.278 70.7296 216.529 71.2393C214.618 73.0649 212.708 74.8906 210.662 76.7851Z" fill="#333333"/>
<path d="M153.126 136.373C154.402 136.159 155.624 136.086 157.062 136.161C158.107 137.74 159.357 138.797 157.807 140.862C153.644 146.405 149.488 152.012 145.989 157.98C141.245 166.074 137.932 174.591 140.967 184.382C142.052 187.883 140.952 191.364 138.05 193.981C136.691 195.207 135.309 196.41 133.99 197.679C130.688 200.857 127.416 204.066 124.044 207.251C123.956 207.239 123.781 207.206 123.718 207.065C121.092 204.277 118.529 201.629 115.967 198.981C121.509 193.5 127.074 188.041 132.553 182.497C133.003 182.042 133.155 180.928 132.962 180.259C131.357 174.678 132.31 169.475 134.605 164.24C139.141 153.892 145.554 144.848 153.126 136.373Z" fill="#2467D1"/>
<path d="M115.797 198.941C118.529 201.629 121.092 204.277 123.515 207.075C120.9 206.937 119.032 207.883 117.292 209.676C111.811 215.322 106.18 220.824 100.643 226.416C99.9669 227.099 99.5056 227.995 98.9447 228.792C96.2313 226.757 93.5178 224.721 90.6611 222.461C90.4118 222.126 90.3057 222.015 90.1996 221.904C90.1996 221.904 90.256 221.943 90.2401 221.974C90.1431 219.809 91.026 218.082 92.5835 216.547C97.9983 211.208 103.374 205.83 108.717 200.42C110.732 198.38 112.878 197.386 115.797 198.941Z" fill="#333333"/>
<path d="M183.629 36.8286C180.383 33.6871 176.951 30.1954 173.55 26.9913C172.432 25.0121 172.958 23.5443 174.496 22.0923C176.636 20.0708 178.575 17.8359 180.634 15.54C185.594 16.2762 190.52 17.1652 195.446 18.0524C195.962 18.1453 196.868 18.5046 197.393 18.8679C194.76 22.6697 190.794 25.7174 187.489 29.1072C185.456 31.193 183.261 33.5782 183.629 36.8286Z" fill="#2467D1"/>
<path d="M215.003 194.908C215.514 197.31 214.68 199.181 212.939 200.866C209.146 204.534 205.5 208.353 201.708 212.021C196.045 217.498 189.229 220.525 181.367 220.919C179.159 221.03 178.046 222.43 176.933 223.773C174.666 226.509 171.989 227.141 168.449 225.908C166.16 224.657 164.039 223.712 162.197 222.383C155.407 217.482 149.65 211.639 146.656 203.612C144.968 199.088 147.799 194.661 152.515 194.016C158.915 193.142 163.385 189.586 165.73 183.696C168.084 177.78 167.32 171.957 163.032 167.196C160.72 164.629 157.508 162.871 154.317 160.457C155.515 154.368 159.244 149.079 164.594 144.802C166.334 146.284 168.074 147.766 170.026 149.456C172.171 151.576 174.103 153.488 176.035 155.401C178.389 157.796 180.744 160.191 183.322 162.785C185.488 164.881 187.431 166.779 189.375 168.677C191.573 170.925 193.77 173.173 196.183 175.627C198.331 177.743 200.264 179.651 202.197 181.56C204.413 183.791 206.629 186.022 209.041 188.474C211.158 190.766 213.081 192.837 215.003 194.908Z" fill="#2467D1"/>
<path d="M183.502 36.6184C183.075 33.228 185.007 31.0659 187.041 28.9801C190.345 25.5904 193.686 22.2362 197.099 18.7428C206.239 20.9574 214.901 24.3341 222.902 29.1534C228.936 32.7882 234.731 36.8326 240.525 40.8493C242.562 42.2615 244.281 44.1332 246.21 45.9297C245.603 47.2985 245.168 48.764 244.223 49.7297C237.601 56.4941 230.873 63.1556 224.179 69.8493C221.086 72.9415 221.086 72.9408 217.174 70.888C216.771 70.3466 216.634 69.7235 216.254 69.3437C205.371 58.467 194.465 47.6147 183.502 36.6184ZM219.179 53.2981C218.003 55.1295 218.078 56.9332 219.47 58.5815C220.63 59.9558 222.13 60.6232 223.962 60.0873C225.922 59.514 227.115 58.1581 227.328 56.1678C227.544 54.1385 226.522 52.6115 224.719 51.7324C222.639 50.7186 220.871 51.3781 219.179 53.2981Z" fill="#2467D1"/>
<path d="M164.559 144.646C159.244 149.079 155.515 154.368 154.317 160.457C157.508 162.871 160.72 164.629 163.032 167.196C167.32 171.957 168.084 177.78 165.73 183.696C163.385 189.586 158.915 193.142 152.515 194.016C147.799 194.661 144.968 199.088 146.656 203.612C149.65 211.639 155.407 217.482 162.197 222.383C164.039 223.712 166.16 224.657 168.266 225.896C164.846 229.455 161.314 232.898 157.775 236.334C157.067 237.021 156.332 237.679 155.345 238.348C150.873 234.149 146.655 229.965 142.465 225.753C136.343 219.6 130.242 213.427 124.132 207.262C127.416 204.066 130.688 200.857 133.99 197.679C135.309 196.41 136.691 195.207 138.05 193.981C140.952 191.364 142.052 187.883 140.967 184.382C137.932 174.591 141.245 166.074 145.989 157.98C149.488 152.012 153.644 146.405 157.807 140.862C159.357 138.797 158.107 137.74 157.238 136.152C159.105 134.028 161.013 132.061 163.197 130.066C165.586 132.194 167.699 134.351 169.812 136.508C167.993 138.215 166.056 139.82 164.432 141.695C163.984 142.212 164.467 143.536 164.559 144.646ZM147.032 184.286C150.156 185.721 153.04 185.272 155.496 182.929C157.673 180.852 158.272 178.227 157.362 175.35C156.374 172.226 153.435 170.132 150.257 170.174C147.052 170.217 144.157 172.398 143.224 175.472C142.216 178.796 143.442 181.836 147.032 184.286Z" fill="#424242"/>
<path d="M124.044 207.251C130.242 213.427 136.343 219.6 142.465 225.753C146.655 229.965 150.873 234.149 155.208 238.428C157.451 241.987 157.274 243.316 154.362 246.292C153.624 247.046 152.958 247.871 152.237 248.815C143.509 247.73 134.909 246.025 126.614 243.02C116.884 239.495 107.609 235.079 99.0782 228.874C99.5056 227.995 99.9669 227.099 100.643 226.416C106.18 220.824 111.811 215.322 117.292 209.676C119.032 207.883 120.9 206.937 123.578 207.216C123.781 207.206 123.956 207.239 124.044 207.251Z" fill="#333333"/>
<path d="M211.904 133.143C211.102 131.535 211.573 130.262 212.802 129.045C218.444 123.454 224.015 117.79 229.676 112.218C233.077 108.87 237.114 108.725 240.046 111.686C242.985 114.652 242.788 118.683 239.464 122.033C233.923 127.618 228.335 133.157 222.789 138.737C221.63 139.903 220.467 140.775 218.54 139.573C216.166 137.301 214.035 135.222 211.904 133.143Z" fill="#2467D1"/>
<path d="M169.966 136.537C167.699 134.351 165.586 132.194 163.325 129.968C162.356 128.208 162.826 126.9 164.144 125.602C169.974 119.858 175.735 114.044 181.525 108.259C184.352 105.433 185.818 105.6 187.904 108.988C188.224 109.508 188.487 110.063 188.852 110.745C190.28 116.075 189.099 120.457 185.11 124.191C181.209 127.841 177.513 131.71 173.751 135.507C172.714 136.553 171.651 137.307 169.966 136.537Z" fill="#2467D1"/>
<path d="M215.121 181.824C214.695 180.09 215.274 178.779 216.558 177.535C220.455 173.762 224.237 169.87 228.098 166.059C231.256 162.941 235.483 162.723 238.317 165.47C241.231 168.295 241.092 172.625 237.909 175.855C233.994 179.827 230.093 183.82 226.027 187.634C225.187 188.423 223.649 188.467 222.198 188.701C219.683 186.307 217.402 184.065 215.121 181.824Z" fill="#2467D1"/>
<path d="M199.128 120.271C198.075 118.651 198.444 117.273 199.761 115.972C203.294 112.481 206.731 108.892 210.329 105.47C213.601 102.358 217.783 102.347 220.588 105.237C223.291 108.022 223.029 112.293 219.906 115.46C216.472 118.942 212.986 122.371 209.548 125.85C208.511 126.898 207.448 127.652 205.682 126.753C203.342 124.479 201.235 122.375 199.128 120.271Z" fill="#2467D1"/>
<path d="M211.83 145.766C213.238 147.372 212.836 148.73 211.407 150.129C207.537 153.918 203.727 157.768 199.909 161.61C198.879 162.648 197.8 163.395 196.037 162.55C193.701 160.281 191.597 158.176 189.493 156.072C188.453 154.475 188.723 153.102 190.068 151.777C193.931 147.971 197.748 144.119 201.583 140.285C202.76 139.108 204.008 138.359 205.814 139.826C207.97 141.941 209.9 143.854 211.83 145.766Z" fill="#2467D1"/>
<path d="M176.102 142.783C175.403 141.288 175.684 140.029 176.87 138.859C180.774 135.004 184.636 131.106 188.519 127.229C189.789 125.96 191.147 125.374 192.95 126.976C195.125 129.082 197.065 130.984 199.005 132.886C200.036 134.4 199.744 135.68 198.462 136.941C194.499 140.841 190.579 144.784 186.661 148.73C185.57 149.83 184.407 150.249 182.74 149.213C180.365 146.941 178.234 144.862 176.102 142.783Z" fill="#2467D1"/>
<path d="M225.169 159.043C226.117 160.697 225.675 162.019 224.359 163.308C220.503 167.083 216.701 170.914 212.903 174.748C211.69 175.972 210.454 176.558 208.688 175.097C206.413 172.92 204.378 170.942 202.343 168.964C201.418 167.388 201.869 166.112 203.101 164.895C206.943 161.101 210.75 157.27 214.558 153.441C215.663 152.33 216.852 151.673 218.65 152.689C220.977 154.943 223.073 156.993 225.169 159.043Z" fill="#2467D1"/>
<path d="M224.76 146.02C224.347 144.286 224.924 142.96 226.222 141.742C228.556 139.551 230.744 137.204 233.042 134.972C236.299 131.81 240.346 131.636 243.248 134.474C246.204 137.365 246.045 141.52 242.81 144.822C240.408 147.273 238.055 149.789 235.483 152.05C234.67 152.765 233.218 152.753 231.827 152.911C229.317 150.505 227.039 148.263 224.76 146.02Z" fill="#2467D1"/>
<path d="M202.216 169.073C204.378 170.942 206.413 172.92 208.545 175.018C206.596 177.252 204.55 179.366 202.351 181.52C200.264 179.651 198.331 177.743 196.313 175.706C198.182 173.446 200.135 171.314 202.216 169.073Z" fill="#424242"/>
<path d="M215.052 181.975C217.402 184.065 219.683 186.307 222.043 188.686C219.854 190.824 217.587 192.825 215.161 194.867C213.081 192.837 211.158 190.766 209.168 188.558C211.061 186.322 213.022 184.224 215.052 181.975Z" fill="#424242"/>
<path d="M224.693 146.173C227.039 148.263 229.317 150.505 231.673 152.886C229.641 154.975 227.532 156.925 225.296 158.959C223.073 156.993 220.977 154.943 218.809 152.759C220.7 150.524 222.663 148.425 224.693 146.173Z" fill="#424242"/>
<path d="M211.985 145.726C209.9 143.854 207.97 141.941 205.954 139.901C207.829 137.661 209.788 135.548 211.826 133.289C214.035 135.222 216.166 137.301 218.385 139.51C216.362 141.655 214.251 143.67 211.985 145.726Z" fill="#424242"/>
<path d="M189.358 156.175C191.597 158.176 193.701 160.281 195.883 162.524C193.85 164.612 191.739 166.562 189.502 168.594C187.431 166.779 185.488 164.881 183.454 162.859C185.317 160.582 187.27 158.43 189.358 156.175Z" fill="#424242"/>
<path d="M176.025 142.93C178.234 144.862 180.365 146.941 182.586 149.148C180.565 151.293 178.455 153.308 176.19 155.362C174.103 153.488 172.171 151.576 170.156 149.535C172.031 147.296 173.99 145.186 176.025 142.93Z" fill="#424242"/>
<path d="M199.134 132.804C197.065 130.984 195.125 129.082 193.094 127.056C194.956 124.781 196.908 122.631 198.994 120.375C201.235 122.375 203.342 124.479 205.526 126.723C203.489 128.816 201.376 130.769 199.134 132.804Z" fill="#424242"/>
<path d="M90.2382 222.022C90.3057 222.015 90.4118 222.126 90.6014 222.316C90.5489 222.31 90.4128 222.225 90.2382 222.022Z" fill="white"/>
<path d="M219.282 53.1588C220.871 51.3781 222.639 50.7186 224.719 51.7324C226.522 52.6115 227.544 54.1385 227.328 56.1677C227.115 58.1581 225.922 59.5139 223.962 60.0872C222.13 60.6232 220.63 59.9558 219.47 58.5815C218.078 56.9332 218.003 55.1294 219.282 53.1588Z" fill="#2467D1"/>
<path d="M146.876 184.209C143.442 181.836 142.216 178.796 143.224 175.472C144.157 172.398 147.052 170.217 150.257 170.174C153.435 170.132 156.374 172.226 157.362 175.35C158.272 178.227 157.673 180.852 155.496 182.929C153.04 185.272 150.156 185.721 146.876 184.209Z" fill="#2467D1"/>
</svg>
